<svg width="37" height="37" viewBox="0 0 37 37" fill="none" xmlns="http://www.w3.org/2000/svg">
<rect width="37" height="37" rx="12" fill="white"/>
<path d="M18.5 4C10.496 4 4 10.496 4 18.5C4 26.504 10.496 33 18.5 33C26.504 33 33 26.504 33 18.5C33 10.496 26.504 4 18.5 4ZM18.5 8.35C20.907 8.35 22.85 10.293 22.85 12.7C22.85 15.107 20.907 17.05 18.5 17.05C16.093 17.05 14.15 15.107 14.15 12.7C14.15 10.293 16.093 8.35 18.5 8.35ZM18.5 28.94C14.875 28.94 11.6705 27.084 9.8 24.271C9.8435 21.3855 15.6 19.805 18.5 19.805C21.3855 19.805 27.1565 21.3855 27.2 24.271C25.3295 27.084 22.125 28.94 18.5 28.94Z" fill="#1A3184"/>
</svg>
