<svg width="135" height="40" viewBox="0 0 135 40" fill="none" xmlns="http://www.w3.org/2000/svg">
<g clip-path="url(#clip0)">
<path fill-rule="evenodd" clip-rule="evenodd" d="M130 40H5.02244C2.25436 40 0 37.7456 0 35V5C0 2.24439 2.25436 0 5.02244 0H130C132.766 0 135.022 2.24439 135.022 5V35C135.022 37.7456 132.766 40 130 40Z" fill="black"/>
<path fill-rule="evenodd" clip-rule="evenodd" d="M130 0.800499C132.322 0.800499 134.222 2.68828 134.222 5V35C134.222 37.3117 132.334 39.1995 130 39.1995H5.02244C2.70075 39.1995 0.800499 37.3117 0.800499 35V5C0.800499 2.68828 2.68828 0.800499 5.02244 0.800499H130ZM130 0H5.02244C2.25436 0 0 2.25436 0 5V35C0 37.7556 2.25436 40 5.02244 40H130C132.766 40 135.022 37.7556 135.022 35V5C135.022 2.25436 132.766 0 130 0Z" fill="#A6A6A6"/>
<path d="M68.136 21.7521C65.784 21.7521 63.867 23.5401 63.867 26.0051C63.867 28.4541 65.784 30.2581 68.136 30.2581C70.488 30.2581 72.405 28.4541 72.405 26.0051C72.405 23.5401 70.488 21.7521 68.136 21.7521ZM68.136 28.5831C66.847 28.5831 65.735 27.5201 65.735 26.0051C65.735 24.4741 66.847 23.4271 68.136 23.4271C69.425 23.4271 70.536 24.4741 70.536 26.0051C70.536 27.5191 69.425 28.5831 68.136 28.5831ZM58.822 21.7521C56.47 21.7521 54.553 23.5401 54.553 26.0051C54.553 28.4541 56.47 30.2581 58.822 30.2581C61.174 30.2581 63.091 28.4541 63.091 26.0051C63.092 23.5401 61.174 21.7521 58.822 21.7521ZM58.822 28.5831C57.533 28.5831 56.422 27.5201 56.422 26.0051C56.422 24.4741 57.534 23.4271 58.822 23.4271C60.111 23.4271 61.222 24.4741 61.222 26.0051C61.223 27.5191 60.111 28.5831 58.822 28.5831ZM47.744 23.0571V24.8611H52.062C51.933 25.8761 51.595 26.6171 51.079 27.1331C50.451 27.7611 49.468 28.4541 47.744 28.4541C45.086 28.4541 43.008 26.3111 43.008 23.6531C43.008 20.9951 45.086 18.8521 47.744 18.8521C49.178 18.8521 50.225 19.4161 50.998 20.1411L52.271 18.8681C51.192 17.8371 49.758 17.0471 47.744 17.0471C44.103 17.0471 41.042 20.0111 41.042 23.6521C41.042 27.2931 44.103 30.2571 47.744 30.2571C49.709 30.2571 51.192 29.6131 52.352 28.4041C53.544 27.2121 53.915 25.5361 53.915 24.1831C53.915 23.7641 53.883 23.3771 53.818 23.0551H47.744V23.0571ZM93.052 24.4581C92.698 23.5071 91.618 21.7511 89.411 21.7511C87.22 21.7511 85.4 23.4751 85.4 26.0041C85.4 28.3881 87.204 30.2571 89.621 30.2571C91.57 30.2571 92.698 29.0651 93.165 28.3721L91.715 27.4051C91.232 28.1141 90.571 28.5811 89.621 28.5811C88.67 28.5811 87.994 28.1461 87.559 27.2921L93.246 24.9401L93.052 24.4581ZM87.252 25.8761C87.204 24.2331 88.525 23.3951 89.475 23.3951C90.216 23.3951 90.844 23.7651 91.054 24.2971L87.252 25.8761ZM82.628 30.0001H84.497V17.4991H82.628V30.0001ZM79.567 22.7021H79.503C79.084 22.2031 78.279 21.7511 77.264 21.7511C75.137 21.7511 73.188 23.6201 73.188 26.0201C73.188 28.4041 75.137 30.2571 77.264 30.2571C78.279 30.2571 79.084 29.8061 79.503 29.2901H79.567V29.9021C79.567 31.5291 78.697 32.3991 77.295 32.3991C76.151 32.3991 75.442 31.5771 75.152 30.8851L73.525 31.5621C73.992 32.6901 75.233 34.0751 77.295 34.0751C79.486 34.0751 81.339 32.7861 81.339 29.6451V22.0091H79.567V22.7021ZM77.425 28.5831C76.136 28.5831 75.057 27.5041 75.057 26.0211C75.057 24.5231 76.136 23.4271 77.425 23.4271C78.698 23.4271 79.696 24.5221 79.696 26.0211C79.696 27.5031 78.698 28.5831 77.425 28.5831ZM101.806 17.4991H97.335V30.0001H99.2V25.2641H101.805C103.873 25.2641 105.906 23.7671 105.906 21.3821C105.906 18.9971 103.874 17.4991 101.806 17.4991ZM101.854 23.5241H99.2V19.2391H101.854C103.249 19.2391 104.041 20.3941 104.041 21.3821C104.041 22.3501 103.249 23.5241 101.854 23.5241ZM113.386 21.7291C112.035 21.7291 110.636 22.3241 110.057 23.6431L111.714 24.3351C112.068 23.6431 112.727 23.4181 113.419 23.4181C114.384 23.4181 115.365 23.9971 115.381 25.0261V25.1551C115.043 24.9621 114.319 24.6721 113.435 24.6721C111.65 24.6721 109.832 25.6531 109.832 27.4871C109.832 29.1601 111.296 30.2371 112.936 30.2371C114.191 30.2371 114.882 29.6741 115.316 29.0151H115.38V29.9801H117.181V25.1871C117.181 22.9671 115.525 21.7291 113.386 21.7291ZM113.16 28.5801C112.549 28.5801 111.696 28.2741 111.696 27.5191C111.696 26.5541 112.758 26.1841 113.674 26.1841C114.494 26.1841 114.88 26.3611 115.379 26.6021C115.235 27.7601 114.238 28.5801 113.16 28.5801ZM123.743 22.0021L121.604 27.4221H121.54L119.321 22.0021H117.311L120.64 29.5771L118.742 33.7911H120.688L125.819 22.0021H123.743ZM106.936 30.0001H108.802V17.4991H106.936V30.0001Z" fill="white"/>
<path fill-rule="evenodd" clip-rule="evenodd" d="M73.609 12.224C73.019 12.831 72.286 13.133 71.409 13.133C70.532 13.133 69.799 12.83 69.21 12.224C68.62 11.618 68.326 10.876 68.326 9.99901C68.326 9.12201 68.62 8.38001 69.21 7.77401C69.799 7.16701 70.532 6.86401 71.409 6.86401C72.281 6.86401 73.013 7.16901 73.605 7.77801C74.197 8.38701 74.493 9.12701 74.493 9.99901C74.493 10.877 74.198 11.619 73.609 12.224ZM69.779 11.722C70.223 12.172 70.766 12.396 71.409 12.396C72.052 12.396 72.595 12.171 73.039 11.722C73.483 11.272 73.706 10.698 73.706 10C73.706 9.30201 73.483 8.72701 73.039 8.27801C72.596 7.82801 72.052 7.60401 71.409 7.60401C70.766 7.60401 70.223 7.82901 69.779 8.27801C69.336 8.72801 69.113 9.30201 69.113 10C69.113 10.698 69.336 11.272 69.779 11.722Z" fill="white"/>
<path d="M47.418 10.243C47.418 11.081 47.17 11.748 46.673 12.246C46.109 12.838 45.373 13.134 44.469 13.134C43.603 13.134 42.866 12.834 42.261 12.234C41.655 11.633 41.352 10.889 41.352 10.001C41.352 9.11201 41.655 8.36801 42.261 7.76801C42.866 7.16701 43.603 6.86701 44.469 6.86701C44.899 6.86701 45.31 6.95101 45.7 7.11801C46.091 7.28601 46.404 7.50901 46.638 7.78801L46.111 8.31601C45.714 7.84101 45.167 7.60401 44.468 7.60401C43.836 7.60401 43.29 7.82601 42.829 8.27001C42.369 8.71401 42.139 9.29001 42.139 10C42.139 10.71 42.369 11.286 42.83 11.731C43.291 12.175 43.837 12.397 44.469 12.397C45.139 12.397 45.698 12.174 46.145 11.727C46.435 11.436 46.603 11.031 46.648 10.512H44.469V9.79001H47.376C47.405 9.94701 47.418 10.098 47.418 10.243Z" fill="white"/>
<path d="M52.028 7.73702H49.296V9.63902H51.76V10.36H49.296V12.262H52.028V13H48.525V7.00002H52.028V7.73702Z" fill="white"/>
<path d="M54.507 13H55.278V7.73702H56.954V7.00002H52.831V7.73702H54.507V13Z" fill="white"/>
<path d="M59.938 13V7.00002H60.709V13H59.938Z" fill="white"/>
<path d="M63.356 13H64.127V7.73702H65.803V7.00002H61.68V7.73702H63.356V13Z" fill="white"/>
<path d="M75.575 7.00002V13H76.344V9.26202L76.311 8.10602H76.344L79.395 13H80.2V7.00002H79.429V10.512L79.462 11.668H79.429L76.513 7.00002H75.575Z" fill="white"/>
<path fill-rule="evenodd" clip-rule="evenodd" d="M73.609 12.224C73.019 12.831 72.286 13.133 71.409 13.133C70.532 13.133 69.799 12.83 69.21 12.224C68.62 11.618 68.326 10.876 68.326 9.99901C68.326 9.12201 68.62 8.38001 69.21 7.77401C69.799 7.16701 70.532 6.86401 71.409 6.86401C72.281 6.86401 73.013 7.16901 73.605 7.77801C74.197 8.38701 74.493 9.12701 74.493 9.99901C74.493 10.877 74.198 11.619 73.609 12.224ZM69.779 11.722C70.223 12.172 70.766 12.396 71.409 12.396C72.052 12.396 72.595 12.171 73.039 11.722C73.483 11.272 73.706 10.698 73.706 10C73.706 9.30201 73.483 8.72701 73.039 8.27801C72.596 7.82801 72.052 7.60401 71.409 7.60401C70.766 7.60401 70.223 7.82901 69.779 8.27801C69.336 8.72801 69.113 9.30201 69.113 10C69.113 10.698 69.336 11.272 69.779 11.722Z" stroke="white" stroke-width="0.2" stroke-miterlimit="10"/>
<path d="M47.418 10.243C47.418 11.081 47.17 11.748 46.673 12.246C46.109 12.838 45.373 13.134 44.469 13.134C43.603 13.134 42.866 12.834 42.261 12.234C41.655 11.633 41.352 10.889 41.352 10.001C41.352 9.11201 41.655 8.36801 42.261 7.76801C42.866 7.16701 43.603 6.86701 44.469 6.86701C44.899 6.86701 45.31 6.95101 45.7 7.11801C46.091 7.28601 46.404 7.50901 46.638 7.78801L46.111 8.31601C45.714 7.84101 45.167 7.60401 44.468 7.60401C43.836 7.60401 43.29 7.82601 42.829 8.27001C42.369 8.71401 42.139 9.29001 42.139 10C42.139 10.71 42.369 11.286 42.83 11.731C43.291 12.175 43.837 12.397 44.469 12.397C45.139 12.397 45.698 12.174 46.145 11.727C46.435 11.436 46.603 11.031 46.648 10.512H44.469V9.79001H47.376C47.405 9.94701 47.418 10.098 47.418 10.243Z" stroke="white" stroke-width="0.2" stroke-miterlimit="10"/>
<path d="M52.028 7.73702H49.296V9.63902H51.76V10.36H49.296V12.262H52.028V13H48.525V7.00002H52.028V7.73702Z" stroke="white" stroke-width="0.2" stroke-miterlimit="10"/>
<path d="M54.507 13H55.278V7.73702H56.954V7.00002H52.831V7.73702H54.507V13Z" stroke="white" stroke-width="0.2" stroke-miterlimit="10"/>
<path d="M59.938 13V7.00002H60.709V13H59.938Z" stroke="white" stroke-width="0.2" stroke-miterlimit="10"/>
<path d="M63.356 13H64.127V7.73702H65.803V7.00002H61.68V7.73702H63.356V13Z" stroke="white" stroke-width="0.2" stroke-miterlimit="10"/>
<path d="M75.575 7.00002V13H76.344V9.26202L76.311 8.10602H76.344L79.395 13H80.2V7.00002H79.429V10.512L79.462 11.668H79.429L76.513 7.00002H75.575Z" stroke="white" stroke-width="0.2" stroke-miterlimit="10"/>
<path d="M10.435 7.53809C10.144 7.84609 9.97198 8.32409 9.97198 8.94309V31.0591C9.97198 31.6791 10.144 32.1561 10.435 32.4641L10.509 32.5361L22.898 20.1471V20.0011V19.8551L10.509 7.46509L10.435 7.53809Z" fill="url(#paint0_linear)"/>
<path d="M27.028 24.2791L22.899 20.1481V20.0021V19.8561L27.029 15.7261L27.122 15.7791L32.015 18.5591C33.413 19.3531 33.413 20.6521 32.015 21.4471L27.122 24.2271L27.028 24.2791Z" fill="url(#paint1_linear)"/>
<path d="M27.122 24.225L22.899 20.001L10.435 32.464C10.896 32.952 11.656 33.012 12.513 32.525L27.122 24.225Z" fill="url(#paint2_linear)"/>
<path d="M27.122 15.777L12.514 7.47705C11.657 6.99005 10.897 7.05105 10.436 7.53805L22.899 20.001L27.122 15.777Z" fill="url(#paint3_linear)"/>
<path opacity="0.2" d="M27.029 24.1321L12.514 32.3791C11.702 32.8401 10.976 32.8101 10.51 32.3901L10.435 32.4651L10.509 32.5371C10.975 32.9571 11.701 32.9881 12.513 32.5261L27.121 24.2261L27.029 24.1321Z" fill="black"/>
<path opacity="0.12" d="M10.435 32.3181C10.144 32.0101 9.97198 31.5321 9.97198 30.9131V31.0591C9.97198 31.6781 10.144 32.1561 10.435 32.4641L10.51 32.3891L10.435 32.3181Z" fill="black"/>
<path opacity="0.12" d="M32.015 21.299L27.029 24.132L27.122 24.225L32.015 21.445C32.714 21.048 33.063 20.525 33.063 20.002C33.004 20.475 32.648 20.939 32.015 21.299Z" fill="black"/>
<path opacity="0.25" d="M12.513 7.62305L32.014 18.703C32.648 19.063 33.003 19.5271 33.062 20.001C33.062 19.4781 32.713 18.9541 32.014 18.557L12.513 7.47705C11.115 6.68305 9.97198 7.34205 9.97198 8.94305V9.09005C9.97198 7.48905 11.116 6.82905 12.513 7.62305Z" fill="white"/>
</g>
<defs>
<linearGradient id="paint0_linear" x1="21.7996" y1="8.70989" x2="5.01719" y2="25.4923" gradientUnits="userSpaceOnUse">
<stop stop-color="#00A0FF"/>
<stop offset="0.0066" stop-color="#00A1FF"/>
<stop offset="0.2601" stop-color="#00BEFF"/>
<stop offset="0.5122" stop-color="#00D2FF"/>
<stop offset="0.7604" stop-color="#00DFFF"/>
<stop offset="1" stop-color="#00E3FF"/>
</linearGradient>
<linearGradient id="paint1_linear" x1="33.8343" y1="20.0016" x2="9.63739" y2="20.0016" gradientUnits="userSpaceOnUse">
<stop stop-color="#FFE000"/>
<stop offset="0.4087" stop-color="#FFBD00"/>
<stop offset="0.7754" stop-color="#FFA500"/>
<stop offset="1" stop-color="#FF9C00"/>
</linearGradient>
<linearGradient id="paint2_linear" x1="24.8269" y1="22.2962" x2="2.0686" y2="45.0545" gradientUnits="userSpaceOnUse">
<stop stop-color="#FF3A44"/>
<stop offset="1" stop-color="#C31162"/>
</linearGradient>
<linearGradient id="paint3_linear" x1="7.2972" y1="0.176348" x2="17.4598" y2="10.3388" gradientUnits="userSpaceOnUse">
<stop stop-color="#32A071"/>
<stop offset="0.0685" stop-color="#2DA771"/>
<stop offset="0.4762" stop-color="#15CF74"/>
<stop offset="0.8009" stop-color="#06E775"/>
<stop offset="1" stop-color="#00F076"/>
</linearGradient>
<clipPath id="clip0">
<rect width="135" height="40" fill="white"/>
</clipPath>
</defs>
</svg>
