<svg width="131" height="169" viewBox="0 0 131 169" fill="none" xmlns="http://www.w3.org/2000/svg">
<path opacity="0.5" d="M61.3459 51.6243C72.8062 44.9624 82.2804 51.1886 83.9566 65.5654C84.2481 68.0522 82.3533 71.3378 80.0394 72.6811L42.6525 94.4277C40.3386 95.771 38.4437 94.6818 38.7352 91.8501C40.4114 75.5673 49.9039 58.2862 61.3459 51.6243Z" fill="url(#paint0_linear)"/>
<path opacity="0.5" d="M48.5735 32.9636C48.5735 42.893 54.331 47.5763 61.4367 43.4375C68.5424 39.2988 74.2998 27.9172 74.2998 17.9879C74.2998 8.05849 68.5424 3.37517 61.4367 7.51392C54.331 11.6527 48.5735 23.0342 48.5735 32.9636Z" fill="url(#paint1_linear)"/>
<path opacity="0.07" d="M53.9851 45.6703C65.4453 39.0084 74.9196 45.2346 76.5958 59.6113C76.8873 62.0982 74.9925 65.3838 72.6785 66.7271L35.2916 88.4737C32.9777 89.8169 31.0829 88.7278 31.3744 85.896C33.0506 69.6133 42.5249 52.3322 53.9851 45.6703Z" fill="url(#paint2_linear)"/>
<path opacity="0.07" d="M41.2132 27.0096C41.2132 36.939 46.9706 41.6223 54.0763 37.4835C61.182 33.3448 66.9395 21.9632 66.9395 12.0339C66.9395 2.10449 61.182 -2.57884 54.0763 1.55991C46.9706 5.69867 41.2132 17.0802 41.2132 27.0096Z" fill="url(#paint3_linear)"/>
<path opacity="0.2" d="M16.4526 101.743L48.8291 83.1187V99.9279L16.4526 118.552V101.743Z" fill="url(#paint4_linear)"/>
<path d="M42.2517 92.5398C42.2517 93.9194 43.0716 94.5729 44.0919 93.992C45.1122 93.4112 45.9321 91.8137 45.9321 90.4341C45.9321 89.0545 45.1122 88.401 44.0919 88.9819C43.0716 89.5628 42.2517 91.1602 42.2517 92.5398Z" fill="white"/>
<path opacity="0.15" d="M40.5389 91.9408L30.8096 97.5499V99.5648L40.5571 93.9557L40.5389 91.9408Z" fill="white"/>
<path opacity="0.15" d="M40.5391 95.9888L19.805 107.915V109.966L40.5391 98.04V95.9888Z" fill="white"/>
<path opacity="0.2" d="M82.2256 82.32L114.602 63.7138V80.5229L82.2256 99.1473V82.32Z" fill="url(#paint5_linear)"/>
<path d="M108.025 73.1167C108.025 74.4963 108.845 75.1498 109.865 74.5689C110.885 73.9881 111.705 72.3907 111.705 71.0111C111.705 69.6315 110.885 68.978 109.865 69.5589C108.845 70.1398 108.025 71.7372 108.025 73.1167Z" fill="white"/>
<path opacity="0.15" d="M106.367 72.6085L100.5 75.9848V78.036L106.367 74.6597V72.6085Z" fill="white"/>
<path opacity="0.15" d="M106.312 76.6565L85.5779 88.5826V90.6338L106.312 78.7077V76.6565Z" fill="white"/>
<path opacity="0.3" d="M61.3643 100.908L0.0183754 136.196L0.000160217 168.054L55.9348 135.888L61.346 137.649L61.3643 100.908Z" fill="url(#paint6_linear)"/>
<path d="M48.9019 118.752C48.9019 121.384 50.4506 122.6 52.3818 121.493C54.3131 120.386 55.8618 117.354 55.8618 114.74C55.8618 112.108 54.3131 110.892 52.3818 111.999C50.4688 113.107 48.9019 116.138 48.9019 118.752Z" fill="white"/>
<path opacity="0.15" d="M45.5859 117.735L32.1398 125.468V128.264L45.5859 120.531V117.735Z" fill="white"/>
<path opacity="0.15" d="M45.5859 123.344L5.42961 146.434V149.23L45.5859 126.14V123.344Z" fill="white"/>
<path opacity="0.15" d="M45.5859 128.954L14.1933 147.015V149.811L45.5859 131.749V128.954Z" fill="white"/>
<path opacity="0.3" d="M69.6541 110.057L131 74.7868L130.982 106.644L75.0472 138.81L69.6359 146.797L69.6541 110.057Z" fill="url(#paint7_linear)"/>
<path d="M82.1162 113.56C82.1162 116.192 80.5493 119.206 78.6362 120.313C76.705 121.42 75.1563 120.186 75.1563 117.554C75.1563 114.922 76.7232 111.908 78.6362 110.801C80.5493 109.712 82.1162 110.946 82.1162 113.56Z" fill="white"/>
<path opacity="0.15" d="M85.4322 108.75L98.8784 101.017V103.812L85.4322 111.545V108.75Z" fill="white"/>
<path opacity="0.15" d="M85.414 114.341L125.57 91.251V94.0465L85.4322 117.136L85.414 114.341Z" fill="white"/>
<path opacity="0.15" d="M85.414 119.95L116.807 101.888V104.684L85.414 122.745V119.95Z" fill="white"/>
<path opacity="0.2" d="M105.456 129.897C104.363 130.515 103.488 132.039 103.488 133.31V138.847L99.8078 140.952C98.7146 141.57 97.8401 143.094 97.8401 144.347C97.8401 145.599 98.7146 146.108 99.8078 145.49L103.488 143.367V148.903C103.488 150.156 104.363 150.664 105.456 150.047C106.549 149.43 107.424 147.905 107.424 146.652V141.116L111.104 139.01C112.197 138.393 113.072 136.868 113.072 135.616C113.072 134.363 112.197 133.855 111.104 134.472L107.424 136.578V131.041C107.442 129.77 106.549 129.262 105.456 129.897Z" fill="url(#paint8_linear)"/>
<path opacity="0.2" d="M26.2913 58.976L21.2262 68.8872C20.5338 70.2487 20.6431 71.6101 21.4812 71.9369C22.3194 72.2636 23.5583 71.4104 24.2506 70.049L24.3053 69.9219V80.9223C24.3053 82.1748 25.1799 82.6831 26.273 82.0659C27.3662 81.4306 28.2408 79.9239 28.2408 78.6714V67.671L28.2954 67.7255C28.9878 68.2882 30.2449 67.7073 31.0648 66.4185C31.9029 65.1297 32.0123 63.6412 31.3199 63.0785L26.2913 58.976Z" fill="url(#paint9_linear)"/>
<path opacity="0.2" d="M69.6541 76.6946L77.4521 72.211V69.5971L69.6541 74.0807C69.0164 74.4437 68.0872 75.188 67.3038 76.3316C66.4474 77.5478 65.8462 79.0908 65.8462 80.7608C65.8462 82.6123 66.3199 83.6652 67.2127 83.9556C68.0508 84.2279 69.0529 83.7559 69.6541 83.411L72.8608 81.5595L72.879 81.5413C73.1523 81.378 73.5896 81.2146 73.9357 81.3235C74.2273 81.4143 74.537 81.6866 74.537 82.7212C74.537 83.7559 74.209 84.3731 73.954 84.7543C73.626 85.2263 73.1887 85.553 72.9154 85.6982L72.879 85.7164L63.0768 91.3618V93.9757L72.8243 88.3666C73.4985 88.0218 74.4641 87.2775 75.3022 86.1158C76.2132 84.8269 76.8327 83.2114 76.8327 81.4143C76.8327 79.6172 76.2132 78.7096 75.3204 78.4554C74.4823 78.2195 73.5167 78.5643 72.8426 78.9637L69.6723 80.7971C69.2168 81.0694 68.8707 81.1783 68.6338 81.1057C68.4516 81.0512 68.1236 80.7971 68.1236 79.472C68.1236 78.6006 68.3969 78.0379 68.6702 77.6749C68.98 77.1848 69.3808 76.8399 69.6541 76.6946Z" fill="white"/>
<path d="M76.0126 71.6483C76.0126 73.9899 77.3973 75.0972 79.0918 74.1352C80.7862 73.1549 82.1709 70.4684 82.1709 68.1086C82.1709 65.7669 80.7862 64.6596 79.0918 65.6217C77.3973 66.6019 76.0126 69.3066 76.0126 71.6483Z" fill="white"/>
<path d="M59.0683 94.8833C59.0683 97.225 60.453 98.3323 62.1474 97.3702C63.8419 96.39 65.2266 93.7034 65.2266 91.3436C65.2266 89.002 63.8419 87.8947 62.1474 88.8568C60.453 89.837 59.0683 92.5417 59.0683 94.8833Z" fill="white"/>
<defs>
<linearGradient id="paint0_linear" x1="14.0701" y1="40.7604" x2="60.4917" y2="74.7491" gradientUnits="userSpaceOnUse">
<stop stop-color="white"/>
<stop offset="1" stop-color="white" stop-opacity="0"/>
</linearGradient>
<linearGradient id="paint1_linear" x1="37.788" y1="8.29188" x2="84.2094" y2="42.2805" gradientUnits="userSpaceOnUse">
<stop stop-color="white"/>
<stop offset="1" stop-color="white" stop-opacity="0"/>
</linearGradient>
<linearGradient id="paint2_linear" x1="6.7061" y1="34.8043" x2="53.1277" y2="68.793" gradientUnits="userSpaceOnUse">
<stop stop-color="white"/>
<stop offset="1" stop-color="white" stop-opacity="0"/>
</linearGradient>
<linearGradient id="paint3_linear" x1="30.4245" y1="2.33564" x2="76.8459" y2="36.3243" gradientUnits="userSpaceOnUse">
<stop stop-color="white"/>
<stop offset="1" stop-color="white" stop-opacity="0"/>
</linearGradient>
<linearGradient id="paint4_linear" x1="28.992" y1="94.5341" x2="36.2547" y2="107.164" gradientUnits="userSpaceOnUse">
<stop stop-color="white"/>
<stop offset="1" stop-color="white" stop-opacity="0"/>
</linearGradient>
<linearGradient id="paint5_linear" x1="94.7648" y1="75.1133" x2="102.027" y2="87.7429" gradientUnits="userSpaceOnUse">
<stop stop-color="white"/>
<stop offset="1" stop-color="white" stop-opacity="0"/>
</linearGradient>
<linearGradient id="paint6_linear" x1="35.0147" y1="101.945" x2="27.1406" y2="166.048" gradientUnits="userSpaceOnUse">
<stop stop-color="white"/>
<stop offset="1" stop-color="white" stop-opacity="0"/>
</linearGradient>
<linearGradient id="paint7_linear" x1="83.0309" y1="97.2997" x2="114.621" y2="122.126" gradientUnits="userSpaceOnUse">
<stop stop-color="white"/>
<stop offset="1" stop-color="white" stop-opacity="0"/>
</linearGradient>
<linearGradient id="paint8_linear" x1="101.656" y1="136.969" x2="111.168" y2="144.504" gradientUnits="userSpaceOnUse">
<stop stop-color="white"/>
<stop offset="1" stop-color="white" stop-opacity="0"/>
</linearGradient>
<linearGradient id="paint9_linear" x1="22.6908" y1="68.9743" x2="31.9158" y2="74.1358" gradientUnits="userSpaceOnUse">
<stop stop-color="white"/>
<stop offset="1" stop-color="white" stop-opacity="0"/>
</linearGradient>
</defs>
</svg>
