<svg width="130" height="158" viewBox="0 0 130 158" fill="none" xmlns="http://www.w3.org/2000/svg">
<path opacity="0.3" d="M55.4757 62.25L5.74817 90.9227V116.793L51.0811 90.6559L55.459 92.0903L55.4757 62.25Z" fill="url(#paint0_linear)"/>
<path d="M45.3663 76.7279C45.3663 78.8629 46.6363 79.8637 48.1902 78.963C49.7442 78.0623 51.0141 75.6103 51.0141 73.4753C51.0141 71.3403 49.7442 70.3395 48.1902 71.2402C46.6363 72.1409 45.3663 74.6095 45.3663 76.7279Z" fill="white"/>
<path opacity="0.15" d="M42.6928 75.9106L31.7982 82.199V84.4674L42.6928 78.1791V75.9106Z" fill="white"/>
<path opacity="0.15" d="M42.6928 80.4644L10.1427 99.2292V101.498L42.6928 82.7328V80.4644Z" fill="white"/>
<path opacity="0.15" d="M42.6929 85.0015L17.2443 99.6798V101.948L42.6929 87.2699V85.0015Z" fill="white"/>
<path opacity="0.3" d="M91.6017 27.7393L63.5965 43.8687V95.6598L91.6017 79.5303V27.7393Z" fill="url(#paint1_linear)"/>
<path opacity="0.15" d="M88.8446 58.4805L66.3536 71.4407V73.7092L88.8446 60.7489V58.4805Z" fill="white"/>
<path opacity="0.15" d="M87.2739 63.8013L67.941 74.9434V77.2119L87.2739 66.0697V63.8013Z" fill="white"/>
<path d="M79.1029 73.0752L98.5862 61.8496V67.6375L79.1029 78.8631V73.0752Z" fill="white"/>
<path d="M74.4075 48.0887C74.4075 50.5907 75.8612 51.7749 77.6491 50.7408C79.437 49.6899 80.8908 46.821 80.8908 44.3023C80.8908 41.8004 79.437 40.6161 77.6491 41.6502C75.8612 42.7177 74.4075 45.5867 74.4075 48.0887Z" fill="white"/>
<path d="M77.6491 52.7589C80.5398 51.0742 82.9293 52.6588 83.347 56.2783C83.4139 56.9122 82.946 57.7462 82.3612 58.0798L72.937 63.5841C72.3522 63.9177 71.8843 63.6508 71.9511 62.9336C72.3689 58.8137 74.7583 54.4435 77.6491 52.7589Z" fill="white"/>
<path opacity="0.3" d="M72.1684 89.772L44.1632 105.901V157.693L72.1684 141.563V89.772Z" fill="url(#paint2_linear)"/>
<path opacity="0.15" d="M69.4281 120.513L46.9371 133.473V135.741L69.4281 122.781V120.513Z" fill="white"/>
<path opacity="0.15" d="M67.8575 125.834L48.5245 136.976V139.245L67.8575 128.102V125.834Z" fill="white"/>
<path d="M37.2288 148.035L56.7121 136.809V142.597L37.2288 153.823V148.035Z" fill="white"/>
<path d="M54.9911 110.121C54.9911 112.623 56.4448 113.808 58.2327 112.773C60.0207 111.723 61.4744 108.854 61.4744 106.335C61.4744 103.833 60.0207 102.649 58.2327 103.683C56.4448 104.734 54.9911 107.619 54.9911 110.121Z" fill="white"/>
<path d="M58.2328 114.792C61.1235 113.107 63.513 114.692 63.9307 118.311C63.9976 118.945 63.5297 119.779 62.9449 120.112L53.5207 125.617C52.9358 125.95 52.468 125.684 52.5348 124.966C52.9526 120.846 55.342 116.476 58.2328 114.792Z" fill="white"/>
<path opacity="0.3" d="M80.2724 85.2513L130 56.5786V82.4491L84.6503 108.587L80.2557 115.075L80.2724 85.2513Z" fill="url(#paint3_linear)"/>
<path d="M90.3819 88.0871C90.3819 90.2221 89.112 92.674 87.558 93.5748C86.004 94.4755 84.7341 93.4747 84.7341 91.3397C84.7341 89.2046 86.004 86.7527 87.558 85.852C89.112 84.9513 90.3819 85.9521 90.3819 88.0871Z" fill="white"/>
<path opacity="0.15" d="M93.0554 84.1672L103.95 77.8789V80.1474L93.0554 86.4357V84.1672Z" fill="white"/>
<path opacity="0.15" d="M93.0554 88.7209L125.589 69.9561V72.2245L93.0554 90.9894V88.7209Z" fill="white"/>
<path opacity="0.15" d="M93.0554 93.2745L118.504 78.5962V80.8647L93.0554 95.543V93.2745Z" fill="white"/>
<path opacity="0.4" d="M6.68378 21.4011C34.8894 5.13821 57.9486 24.4035 57.9486 64.8355L65.1504 60.6822C65.1337 15.0127 39.0501 -7.20492 6.68378 11.4432V21.4011Z" fill="url(#paint4_linear)"/>
<path opacity="0.4" d="M30.2109 80.8479C30.2109 62.9003 19.6839 54.4103 6.70062 61.8828V51.9249C23.6608 42.1505 37.396 53.2427 37.4127 76.6946L30.2109 80.8479Z" fill="url(#paint5_linear)"/>
<path opacity="0.4" d="M44.2468 72.5748C44.2468 43.9188 27.437 30.3747 6.73389 42.3175V32.3596C31.4306 18.1317 51.4486 34.2778 51.4486 68.4215L44.2468 72.5748Z" fill="url(#paint6_linear)"/>
<path opacity="0.4" d="M13.5348 90.4391C9.75846 92.6241 6.70062 90.1388 6.70062 84.918C6.70062 79.6972 9.75846 73.6924 13.5348 71.5074C17.3112 69.3223 20.369 71.8076 20.369 77.0284C20.369 82.2659 17.3112 88.254 13.5348 90.4391Z" fill="url(#paint7_linear)"/>
<path opacity="0.07" d="M0 16.5637C28.2057 0.300804 51.2648 19.5661 51.2648 59.9981L58.4666 55.8448C58.4499 10.1753 32.3663 -12.0423 0 6.6058V16.5637Z" fill="url(#paint8_linear)"/>
<path opacity="0.07" d="M23.5271 76.011C23.5271 58.0634 13.0001 49.5733 0.0167847 57.0459V47.088C16.9769 37.3136 30.7122 48.4057 30.7289 71.8577L23.5271 76.011Z" fill="url(#paint9_linear)"/>
<path opacity="0.07" d="M37.563 67.7374C37.563 39.0814 20.7532 25.5373 0.0501099 37.4801V27.5222C24.7468 13.2943 44.7648 29.4404 44.7648 63.5841L37.563 67.7374Z" fill="url(#paint10_linear)"/>
<path opacity="0.07" d="M6.85098 85.6016C3.07463 87.7867 0.0167847 85.3014 0.0167847 80.0806C0.0167847 74.8598 3.07463 68.855 6.85098 66.67C10.6273 64.4849 13.6852 66.9702 13.6852 72.191C13.6852 77.4285 10.6273 83.4166 6.85098 85.6016Z" fill="url(#paint11_linear)"/>
<path opacity="0.2" d="M28.7404 111.506C27.7379 112.073 26.9358 113.474 26.9358 114.625V119.712L23.5605 121.647C22.5579 122.214 21.7559 123.615 21.7559 124.766C21.7559 125.917 22.5579 126.384 23.5605 125.817L26.9358 123.882V128.97C26.9358 130.12 27.7379 130.587 28.7404 130.02C29.743 129.453 30.5451 128.052 30.5451 126.901V121.814L33.9204 119.879C34.923 119.312 35.725 117.911 35.725 116.76C35.725 115.609 34.923 115.142 33.9204 115.709L30.5451 117.644V112.557C30.5451 111.406 29.743 110.939 28.7404 111.506Z" fill="url(#paint12_linear)"/>
<path opacity="0.2" d="M108.361 38.8481L103.716 47.9554C103.081 49.2064 103.181 50.4574 103.95 50.7576C104.719 51.0578 105.855 50.2739 106.49 49.0229L106.54 48.9061V59.0141C106.54 60.1651 107.342 60.6321 108.345 60.065C109.347 59.4812 110.149 58.0967 110.149 56.9458V46.8378L110.199 46.8879C110.834 47.4049 111.987 46.8712 112.739 45.6869C113.508 44.5026 113.608 43.1349 112.973 42.6178L108.361 38.8481Z" fill="url(#paint13_linear)"/>
<defs>
<linearGradient id="paint0_linear" x1="34.0986" y1="63.0921" x2="27.7255" y2="115.14" gradientUnits="userSpaceOnUse">
<stop stop-color="white"/>
<stop offset="1" stop-color="white" stop-opacity="0"/>
</linearGradient>
<linearGradient id="paint1_linear" x1="60.597" y1="32.2966" x2="85.3893" y2="75.3256" gradientUnits="userSpaceOnUse">
<stop stop-color="white"/>
<stop offset="1" stop-color="white" stop-opacity="0"/>
</linearGradient>
<linearGradient id="paint2_linear" x1="41.1791" y1="94.3255" x2="65.9714" y2="137.354" gradientUnits="userSpaceOnUse">
<stop stop-color="white"/>
<stop offset="1" stop-color="white" stop-opacity="0"/>
</linearGradient>
<linearGradient id="paint3_linear" x1="91.121" y1="74.8762" x2="116.762" y2="94.9784" gradientUnits="userSpaceOnUse">
<stop stop-color="white"/>
<stop offset="1" stop-color="white" stop-opacity="0"/>
</linearGradient>
<linearGradient id="paint4_linear" x1="16.6194" y1="3.82119" x2="58.0828" y2="52.2885" gradientUnits="userSpaceOnUse">
<stop stop-color="white"/>
<stop offset="1" stop-color="white" stop-opacity="0"/>
</linearGradient>
<linearGradient id="paint5_linear" x1="-8.9733" y1="25.7345" x2="32.4901" y2="74.2019" gradientUnits="userSpaceOnUse">
<stop stop-color="white"/>
<stop offset="1" stop-color="white" stop-opacity="0"/>
</linearGradient>
<linearGradient id="paint6_linear" x1="3.55737" y1="14.8505" x2="45.0209" y2="63.3177" gradientUnits="userSpaceOnUse">
<stop stop-color="white"/>
<stop offset="1" stop-color="white" stop-opacity="0"/>
</linearGradient>
<linearGradient id="paint7_linear" x1="-23.3552" y1="38.0133" x2="18.1082" y2="86.4806" gradientUnits="userSpaceOnUse">
<stop stop-color="white"/>
<stop offset="1" stop-color="white" stop-opacity="0"/>
</linearGradient>
<linearGradient id="paint8_linear" x1="9.9359" y1="-1.01618" x2="51.3993" y2="47.4511" gradientUnits="userSpaceOnUse">
<stop stop-color="white"/>
<stop offset="1" stop-color="white" stop-opacity="0"/>
</linearGradient>
<linearGradient id="paint9_linear" x1="-15.6569" y1="20.8976" x2="25.8065" y2="69.3651" gradientUnits="userSpaceOnUse">
<stop stop-color="white"/>
<stop offset="1" stop-color="white" stop-opacity="0"/>
</linearGradient>
<linearGradient id="paint10_linear" x1="-3.12615" y1="10.013" x2="38.3372" y2="58.4802" gradientUnits="userSpaceOnUse">
<stop stop-color="white"/>
<stop offset="1" stop-color="white" stop-opacity="0"/>
</linearGradient>
<linearGradient id="paint11_linear" x1="-30.0389" y1="33.176" x2="11.4245" y2="81.6432" gradientUnits="userSpaceOnUse">
<stop stop-color="white"/>
<stop offset="1" stop-color="white" stop-opacity="0"/>
</linearGradient>
<linearGradient id="paint12_linear" x1="25.2468" y1="118.014" x2="33.9835" y2="124.921" gradientUnits="userSpaceOnUse">
<stop stop-color="white"/>
<stop offset="1" stop-color="white" stop-opacity="0"/>
</linearGradient>
<linearGradient id="paint13_linear" x1="105.05" y1="48.0295" x2="113.518" y2="52.7584" gradientUnits="userSpaceOnUse">
<stop stop-color="white"/>
<stop offset="1" stop-color="white" stop-opacity="0"/>
</linearGradient>
</defs>
</svg>
