<svg width="173" height="181" viewBox="0 0 173 181" fill="none" xmlns="http://www.w3.org/2000/svg">
<path opacity="0.2" d="M96.0327 42.8586L138.239 18.9939L138.435 40.8438L96.2091 64.7085L96.0327 42.8586Z" fill="url(#paint0_linear)"/>
<path opacity="0.15" d="M127.482 30.3786L114.785 37.5575L114.804 40.1787L127.502 32.9998L127.482 30.3786Z" fill="white"/>
<path opacity="0.15" d="M127.521 35.6405L100.48 50.9178L100.5 53.5782L127.54 38.3008L127.521 35.6405Z" fill="white"/>
<path d="M129.736 31.161C129.755 32.9607 130.833 33.8214 132.165 33.0585C133.498 32.3151 134.556 30.2417 134.536 28.442C134.517 26.6424 133.439 25.7817 132.107 26.5446C130.774 27.3075 129.716 29.3614 129.736 31.161Z" fill="white"/>
<path opacity="0.2" d="M0 140.743L42.2262 116.898L42.4221 138.748L0.176351 162.593L0 140.743Z" fill="url(#paint1_linear)"/>
<path opacity="0.15" d="M31.4687 128.263L18.7715 135.442L18.7911 138.063L31.4883 130.884L31.4687 128.263Z" fill="white"/>
<path opacity="0.15" d="M31.4882 133.525L4.44775 148.802L4.46735 151.463L31.5078 136.185L31.4882 133.525Z" fill="white"/>
<path d="M33.7024 129.065C33.722 130.865 34.7997 131.725 36.1321 130.962C37.4646 130.219 38.5227 128.146 38.5031 126.346C38.4835 124.546 37.4058 123.686 36.0734 124.449C34.7409 125.192 33.6828 127.246 33.7024 129.065Z" fill="white"/>
<path opacity="0.1" d="M49.2409 0.860694C57.1963 2.40603 75.0861 4.40128 82.8847 0C82.826 31.1415 75.1841 75.3303 50.2011 111.773C24.8262 103.772 16.4985 68.6012 15.9106 37.851C23.7093 33.4301 41.3835 11.3455 49.2409 0.860694Z" fill="url(#paint2_linear)"/>
<path opacity="0.3" d="M58.9597 7.3159C66.9151 8.86124 84.8049 10.8565 92.6035 6.45521C92.5447 37.5771 84.9028 81.7659 59.9198 118.209C34.5449 110.208 26.2172 75.0564 25.6294 44.2866C33.428 39.8658 51.1023 17.8007 58.9597 7.3159Z" fill="url(#paint3_linear)"/>
<path opacity="0.4" d="M25.6294 44.2866C33.4476 39.8658 51.1023 17.8007 58.9597 7.31588L59.9198 118.208C34.5449 110.208 26.2172 75.0564 25.6294 44.2866Z" fill="url(#paint4_linear)"/>
<path opacity="0.1" d="M100.853 65.8626L61.7617 87.9472L62.5651 181L101.637 158.915L100.853 65.8626Z" fill="url(#paint5_linear)"/>
<path opacity="0.2" d="M96.229 108.095L66.7588 124.742L66.9743 150.602L96.4641 133.955L96.229 108.095Z" fill="url(#paint6_linear)"/>
<path opacity="0.15" d="M95.5039 90.8814L81.8857 98.569L81.9053 101.229L95.5235 93.5417L95.5039 90.8814Z" fill="white"/>
<path opacity="0.15" d="M95.5039 96.1629L81.8857 103.85L81.9053 106.511L95.5235 98.8233L95.5039 96.1629Z" fill="white"/>
<path opacity="0.15" d="M95.6016 101.249L69.7368 115.861L69.7564 118.521L95.6212 103.909L95.6016 101.249Z" fill="white"/>
<path opacity="0.2" d="M100.853 65.8626L61.7617 87.9472L61.8793 100.408L100.951 78.3231L100.853 65.8626Z" fill="url(#paint7_linear)"/>
<path opacity="0.2" d="M91.134 77.6971C91.1536 79.575 92.2705 80.4748 93.6422 79.7119C95.0138 78.9295 96.1111 76.7777 96.0915 74.8999C96.0719 73.022 94.955 72.1222 93.5834 72.8851C92.2117 73.6675 91.1145 75.8192 91.134 77.6971Z" fill="white"/>
<path d="M77.9863 108.056L77.8883 97.3366L51.3965 112.301L51.4945 123.021L77.9863 108.056Z" fill="white"/>
<path opacity="0.3" d="M108.495 62.8111L166.808 29.2049L166.788 59.5444L113.609 90.1772L108.456 97.7866L108.495 62.8111Z" fill="url(#paint8_linear)"/>
<path d="M173 41.0394V32.8041L150.995 45.4798V53.7151L173 41.0394Z" fill="white"/>
<path opacity="0.15" d="M123.465 61.5591L136.24 54.2041V56.8644L123.465 64.2194V61.5591Z" fill="white"/>
<path opacity="0.15" d="M123.465 66.8798L148.095 52.6979V55.3583L123.465 69.5401V66.8798Z" fill="white"/>
<path opacity="0.15" d="M123.465 72.22L153.307 55.0257V57.686L123.465 74.8804V72.22Z" fill="white"/>
<path d="M120.33 66.156C120.33 68.6599 118.841 71.5354 117.019 72.5917C115.196 73.648 113.707 72.4743 113.707 69.9705C113.707 67.4666 115.196 64.5911 117.019 63.5348C118.841 62.4785 120.33 63.6522 120.33 66.156Z" fill="white"/>
<path opacity="0.2" d="M127.247 94.0699C126.071 94.735 125.13 96.3781 125.13 97.7278V103.694L121.172 105.983C119.997 106.648 119.056 108.291 119.056 109.641C119.056 110.99 119.997 111.538 121.172 110.873L125.13 108.604V114.57C125.13 115.92 126.071 116.467 127.247 115.802C128.422 115.137 129.363 113.494 129.363 112.144V106.178L133.321 103.909C134.497 103.244 135.437 101.601 135.437 100.251C135.437 98.9015 134.497 98.3538 133.321 99.0189L129.363 101.288V95.3218C129.363 93.9525 128.422 93.4048 127.247 94.0699Z" fill="url(#paint9_linear)"/>
<defs>
<linearGradient id="paint0_linear" x1="112.515" y1="33.5368" x2="121.918" y2="50.1813" gradientUnits="userSpaceOnUse">
<stop stop-color="white"/>
<stop offset="1" stop-color="white" stop-opacity="0"/>
</linearGradient>
<linearGradient id="paint1_linear" x1="16.4868" y1="131.423" x2="25.8893" y2="148.067" gradientUnits="userSpaceOnUse">
<stop stop-color="white"/>
<stop offset="1" stop-color="white" stop-opacity="0"/>
</linearGradient>
<linearGradient id="paint2_linear" x1="100.531" y1="10.915" x2="46.0307" y2="59.7754" gradientUnits="userSpaceOnUse">
<stop stop-color="white"/>
<stop offset="1" stop-color="white" stop-opacity="0"/>
</linearGradient>
<linearGradient id="paint3_linear" x1="110.248" y1="17.365" x2="55.7477" y2="66.2254" gradientUnits="userSpaceOnUse">
<stop stop-color="white"/>
<stop offset="1" stop-color="white" stop-opacity="0"/>
</linearGradient>
<linearGradient id="paint4_linear" x1="22.7814" y1="55.7572" x2="66.5621" y2="64.1507" gradientUnits="userSpaceOnUse">
<stop stop-color="white"/>
<stop offset="1" stop-color="white" stop-opacity="0"/>
</linearGradient>
<linearGradient id="paint5_linear" x1="106.173" y1="99.1868" x2="65.4663" y2="139.681" gradientUnits="userSpaceOnUse">
<stop stop-color="white"/>
<stop offset="1" stop-color="white" stop-opacity="0"/>
</linearGradient>
<linearGradient id="paint6_linear" x1="91.0136" y1="108.709" x2="73.8334" y2="146.537" gradientUnits="userSpaceOnUse">
<stop stop-color="white"/>
<stop offset="1" stop-color="white" stop-opacity="0"/>
</linearGradient>
<linearGradient id="paint7_linear" x1="87.5022" y1="65.9868" x2="75.6174" y2="99.3184" gradientUnits="userSpaceOnUse">
<stop stop-color="white"/>
<stop offset="1" stop-color="white" stop-opacity="0"/>
</linearGradient>
<linearGradient id="paint8_linear" x1="121.201" y1="50.6588" x2="151.269" y2="74.2414" gradientUnits="userSpaceOnUse">
<stop stop-color="white"/>
<stop offset="1" stop-color="white" stop-opacity="0"/>
</linearGradient>
<linearGradient id="paint9_linear" x1="123.155" y1="101.7" x2="133.401" y2="109.8" gradientUnits="userSpaceOnUse">
<stop stop-color="white"/>
<stop offset="1" stop-color="white" stop-opacity="0"/>
</linearGradient>
</defs>
</svg>
